<mxfile host="app.diagrams.net" modified="2023-06-28T02:24:55.681Z" agent="Mozilla/5.0 (Windows NT 10.0; Win64; x64) AppleWebKit/537.36 (KHTML, like Gecko) Chrome/114.0.0.0 Safari/537.36" etag="E3MXR_9O4U-vUzzgEIiZ" version="21.5.1" type="google">
  <diagram name="Página-1" id="mBaOH2Xd9AtUgZv4RGpF">
    <mxGraphModel grid="1" page="1" gridSize="10" guides="1" tooltips="1" connect="1" arrows="1" fold="1" pageScale="1" pageWidth="827" pageHeight="1169" math="0" shadow="0">
      <root>
        <mxCell id="0" />
        <mxCell id="1" parent="0" />
        <mxCell id="oTK5iQj99HY00BoqEIxF-1" value="&lt;font style=&quot;font-size: 10px;&quot;&gt;&lt;b&gt;VISITANTE&lt;/b&gt;&lt;/font&gt;" style="ellipse;whiteSpace=wrap;html=1;aspect=fixed;" vertex="1" parent="1">
          <mxGeometry x="50" y="51" width="60" height="60" as="geometry" />
        </mxCell>
        <mxCell id="oTK5iQj99HY00BoqEIxF-3" value="" style="endArrow=none;html=1;rounded=0;exitX=0.5;exitY=1;exitDx=0;exitDy=0;" edge="1" parent="1" source="oTK5iQj99HY00BoqEIxF-1">
          <mxGeometry width="50" height="50" relative="1" as="geometry">
            <mxPoint x="250" y="230" as="sourcePoint" />
            <mxPoint x="80" y="200" as="targetPoint" />
          </mxGeometry>
        </mxCell>
        <mxCell id="oTK5iQj99HY00BoqEIxF-4" value="" style="endArrow=none;html=1;rounded=0;" edge="1" parent="1">
          <mxGeometry width="50" height="50" relative="1" as="geometry">
            <mxPoint x="80" y="200" as="sourcePoint" />
            <mxPoint x="120" y="240" as="targetPoint" />
            <Array as="points">
              <mxPoint x="80" y="200" />
            </Array>
          </mxGeometry>
        </mxCell>
        <mxCell id="oTK5iQj99HY00BoqEIxF-5" value="" style="endArrow=none;html=1;rounded=0;" edge="1" parent="1">
          <mxGeometry width="50" height="50" relative="1" as="geometry">
            <mxPoint x="40" y="240" as="sourcePoint" />
            <mxPoint x="80" y="200" as="targetPoint" />
          </mxGeometry>
        </mxCell>
        <mxCell id="oTK5iQj99HY00BoqEIxF-6" value="" style="endArrow=none;html=1;rounded=0;" edge="1" parent="1">
          <mxGeometry width="50" height="50" relative="1" as="geometry">
            <mxPoint x="80" y="120" as="sourcePoint" />
            <mxPoint x="120" y="160" as="targetPoint" />
          </mxGeometry>
        </mxCell>
        <mxCell id="oTK5iQj99HY00BoqEIxF-7" value="" style="endArrow=none;html=1;rounded=0;" edge="1" parent="1">
          <mxGeometry width="50" height="50" relative="1" as="geometry">
            <mxPoint x="40" y="160" as="sourcePoint" />
            <mxPoint x="80" y="120" as="targetPoint" />
          </mxGeometry>
        </mxCell>
        <mxCell id="oTK5iQj99HY00BoqEIxF-8" value="&lt;b&gt;ADM&lt;/b&gt;" style="ellipse;whiteSpace=wrap;html=1;aspect=fixed;align=center;" vertex="1" parent="1">
          <mxGeometry x="50" y="421" width="60" height="60" as="geometry" />
        </mxCell>
        <mxCell id="oTK5iQj99HY00BoqEIxF-9" value="" style="endArrow=none;html=1;rounded=0;exitX=0.5;exitY=1;exitDx=0;exitDy=0;" edge="1" parent="1" source="oTK5iQj99HY00BoqEIxF-8">
          <mxGeometry width="50" height="50" relative="1" as="geometry">
            <mxPoint x="250" y="600" as="sourcePoint" />
            <mxPoint x="80" y="570" as="targetPoint" />
          </mxGeometry>
        </mxCell>
        <mxCell id="oTK5iQj99HY00BoqEIxF-10" value="" style="endArrow=none;html=1;rounded=0;" edge="1" parent="1">
          <mxGeometry width="50" height="50" relative="1" as="geometry">
            <mxPoint x="80" y="570" as="sourcePoint" />
            <mxPoint x="120" y="610" as="targetPoint" />
            <Array as="points">
              <mxPoint x="80" y="570" />
            </Array>
          </mxGeometry>
        </mxCell>
        <mxCell id="oTK5iQj99HY00BoqEIxF-11" value="" style="endArrow=none;html=1;rounded=0;" edge="1" parent="1">
          <mxGeometry width="50" height="50" relative="1" as="geometry">
            <mxPoint x="40" y="610" as="sourcePoint" />
            <mxPoint x="80" y="570" as="targetPoint" />
          </mxGeometry>
        </mxCell>
        <mxCell id="oTK5iQj99HY00BoqEIxF-12" value="" style="endArrow=none;html=1;rounded=0;" edge="1" parent="1">
          <mxGeometry width="50" height="50" relative="1" as="geometry">
            <mxPoint x="80" y="490" as="sourcePoint" />
            <mxPoint x="120" y="530" as="targetPoint" />
          </mxGeometry>
        </mxCell>
        <mxCell id="oTK5iQj99HY00BoqEIxF-13" value="" style="endArrow=none;html=1;rounded=0;" edge="1" parent="1">
          <mxGeometry width="50" height="50" relative="1" as="geometry">
            <mxPoint x="40" y="530" as="sourcePoint" />
            <mxPoint x="80" y="490" as="targetPoint" />
          </mxGeometry>
        </mxCell>
        <mxCell id="oTK5iQj99HY00BoqEIxF-15" value="&lt;b&gt;DENÚNCIA&lt;/b&gt;" style="ellipse;whiteSpace=wrap;html=1;perimeterSpacing=0;" vertex="1" parent="1">
          <mxGeometry x="320" y="30" width="90" height="60" as="geometry" />
        </mxCell>
        <mxCell id="oTK5iQj99HY00BoqEIxF-16" value="&lt;b style=&quot;border-color: var(--border-color);&quot;&gt;RELATÓRIOS&lt;/b&gt;" style="ellipse;whiteSpace=wrap;html=1;" vertex="1" parent="1">
          <mxGeometry x="320" y="120" width="90" height="59" as="geometry" />
        </mxCell>
        <mxCell id="oTK5iQj99HY00BoqEIxF-17" value="&lt;b&gt;VIDA PET&lt;/b&gt;" style="ellipse;whiteSpace=wrap;html=1;" vertex="1" parent="1">
          <mxGeometry x="320" y="421" width="90" height="60" as="geometry" />
        </mxCell>
        <mxCell id="oTK5iQj99HY00BoqEIxF-18" value="&lt;b&gt;ILHAS&lt;br&gt;ECOLÓGICAS&lt;br&gt;&lt;/b&gt;" style="ellipse;whiteSpace=wrap;html=1;" vertex="1" parent="1">
          <mxGeometry x="320" y="330" width="90" height="60" as="geometry" />
        </mxCell>
        <mxCell id="oTK5iQj99HY00BoqEIxF-19" value="&lt;b style=&quot;border-color: var(--border-color);&quot;&gt;LOGIN&lt;/b&gt;" style="ellipse;whiteSpace=wrap;html=1;" vertex="1" parent="1">
          <mxGeometry x="320" y="220" width="90" height="60" as="geometry" />
        </mxCell>
        <mxCell id="oTK5iQj99HY00BoqEIxF-20" value="&lt;b&gt;FOCOS&amp;nbsp; DE LIXO&lt;/b&gt;" style="ellipse;whiteSpace=wrap;html=1;" vertex="1" parent="1">
          <mxGeometry x="320" y="510" width="90" height="60" as="geometry" />
        </mxCell>
        <mxCell id="oTK5iQj99HY00BoqEIxF-21" value="" style="endArrow=none;html=1;rounded=0;strokeColor=#736CA8;fontColor=#1A1A1A;strokeWidth=3;" edge="1" parent="1">
          <mxGeometry width="50" height="50" relative="1" as="geometry">
            <mxPoint x="160" y="320" as="sourcePoint" />
            <mxPoint x="260" y="320" as="targetPoint" />
            <Array as="points">
              <mxPoint x="220" y="320" />
            </Array>
          </mxGeometry>
        </mxCell>
        <mxCell id="oTK5iQj99HY00BoqEIxF-23" value="" style="endArrow=none;html=1;rounded=0;strokeColor=#736CA8;fontColor=#1A1A1A;strokeWidth=3;" edge="1" parent="1">
          <mxGeometry width="50" height="50" relative="1" as="geometry">
            <mxPoint x="80" y="249.5" as="sourcePoint" />
            <mxPoint x="160" y="320" as="targetPoint" />
            <Array as="points" />
          </mxGeometry>
        </mxCell>
        <mxCell id="oTK5iQj99HY00BoqEIxF-24" value="" style="endArrow=none;html=1;rounded=0;strokeColor=#736CA8;fontColor=#1A1A1A;strokeWidth=3;" edge="1" parent="1">
          <mxGeometry width="50" height="50" relative="1" as="geometry">
            <mxPoint x="160" y="320" as="sourcePoint" />
            <mxPoint x="80" y="400" as="targetPoint" />
            <Array as="points" />
          </mxGeometry>
        </mxCell>
        <mxCell id="oTK5iQj99HY00BoqEIxF-25" value="" style="endArrow=none;html=1;rounded=0;strokeColor=#736CA8;fontColor=#1A1A1A;strokeWidth=3;entryX=0;entryY=0.5;entryDx=0;entryDy=0;" edge="1" parent="1" target="oTK5iQj99HY00BoqEIxF-19">
          <mxGeometry width="50" height="50" relative="1" as="geometry">
            <mxPoint x="260" y="320" as="sourcePoint" />
            <mxPoint x="380" y="320" as="targetPoint" />
            <Array as="points" />
          </mxGeometry>
        </mxCell>
        <mxCell id="oTK5iQj99HY00BoqEIxF-26" value="" style="endArrow=none;html=1;rounded=0;strokeColor=#736CA8;fontColor=#1A1A1A;strokeWidth=3;" edge="1" parent="1">
          <mxGeometry width="50" height="50" relative="1" as="geometry">
            <mxPoint x="260" y="320" as="sourcePoint" />
            <mxPoint x="320" y="149" as="targetPoint" />
            <Array as="points">
              <mxPoint x="260" y="149" />
            </Array>
          </mxGeometry>
        </mxCell>
        <mxCell id="oTK5iQj99HY00BoqEIxF-27" value="" style="endArrow=none;html=1;rounded=0;strokeColor=#736CA8;fontColor=#1A1A1A;strokeWidth=3;entryX=0;entryY=0.5;entryDx=0;entryDy=0;" edge="1" parent="1" target="oTK5iQj99HY00BoqEIxF-18">
          <mxGeometry width="50" height="50" relative="1" as="geometry">
            <mxPoint x="260" y="320" as="sourcePoint" />
            <mxPoint x="380" y="320" as="targetPoint" />
            <Array as="points" />
          </mxGeometry>
        </mxCell>
        <mxCell id="oTK5iQj99HY00BoqEIxF-28" value="" style="endArrow=none;html=1;rounded=0;strokeColor=#736CA8;fontColor=#1A1A1A;strokeWidth=3;" edge="1" parent="1">
          <mxGeometry width="50" height="50" relative="1" as="geometry">
            <mxPoint x="260" y="320" as="sourcePoint" />
            <mxPoint x="320" y="450.5" as="targetPoint" />
            <Array as="points">
              <mxPoint x="260" y="450.5" />
            </Array>
          </mxGeometry>
        </mxCell>
        <mxCell id="oTK5iQj99HY00BoqEIxF-29" value="" style="endArrow=none;html=1;rounded=0;strokeColor=#736CA8;fontColor=#1A1A1A;strokeWidth=3;" edge="1" parent="1">
          <mxGeometry width="50" height="50" relative="1" as="geometry">
            <mxPoint x="260" y="450" as="sourcePoint" />
            <mxPoint x="320" y="539.5" as="targetPoint" />
            <Array as="points">
              <mxPoint x="260" y="539.5" />
            </Array>
          </mxGeometry>
        </mxCell>
        <mxCell id="oTK5iQj99HY00BoqEIxF-30" value="" style="endArrow=none;html=1;rounded=0;strokeColor=#736CA8;fontColor=#1A1A1A;strokeWidth=3;entryX=0;entryY=0.5;entryDx=0;entryDy=0;" edge="1" parent="1" target="oTK5iQj99HY00BoqEIxF-15">
          <mxGeometry width="50" height="50" relative="1" as="geometry">
            <mxPoint x="260" y="150" as="sourcePoint" />
            <mxPoint x="310" y="60" as="targetPoint" />
            <Array as="points">
              <mxPoint x="260" y="60" />
            </Array>
          </mxGeometry>
        </mxCell>
        <mxCell id="oTK5iQj99HY00BoqEIxF-45" value="" style="endArrow=none;html=1;rounded=0;strokeColor=#736CA8;fontColor=#1A1A1A;strokeWidth=3;" edge="1" parent="1">
          <mxGeometry width="50" height="50" relative="1" as="geometry">
            <mxPoint x="410" y="59.5" as="sourcePoint" />
            <mxPoint x="510" y="150" as="targetPoint" />
            <Array as="points" />
          </mxGeometry>
        </mxCell>
        <mxCell id="oTK5iQj99HY00BoqEIxF-46" value="" style="endArrow=none;html=1;rounded=0;strokeColor=#736CA8;fontColor=#1A1A1A;strokeWidth=3;" edge="1" parent="1">
          <mxGeometry width="50" height="50" relative="1" as="geometry">
            <mxPoint x="410" y="150" as="sourcePoint" />
            <mxPoint x="510" y="150" as="targetPoint" />
            <Array as="points">
              <mxPoint x="470" y="150" />
            </Array>
          </mxGeometry>
        </mxCell>
        <mxCell id="oTK5iQj99HY00BoqEIxF-47" value="" style="endArrow=none;html=1;rounded=0;strokeColor=#736CA8;fontColor=#1A1A1A;strokeWidth=3;" edge="1" parent="1">
          <mxGeometry width="50" height="50" relative="1" as="geometry">
            <mxPoint x="411" y="249.5" as="sourcePoint" />
            <mxPoint x="510" y="150" as="targetPoint" />
            <Array as="points" />
          </mxGeometry>
        </mxCell>
        <mxCell id="oTK5iQj99HY00BoqEIxF-48" value="" style="endArrow=none;html=1;rounded=0;strokeColor=#736CA8;fontColor=#1A1A1A;strokeWidth=3;" edge="1" parent="1">
          <mxGeometry width="50" height="50" relative="1" as="geometry">
            <mxPoint x="443" y="150" as="sourcePoint" />
            <mxPoint x="543" y="150" as="targetPoint" />
            <Array as="points">
              <mxPoint x="503" y="150" />
            </Array>
          </mxGeometry>
        </mxCell>
        <mxCell id="oTK5iQj99HY00BoqEIxF-49" value="&lt;b style=&quot;border-color: var(--border-color);&quot;&gt;LOGIN&lt;/b&gt;" style="ellipse;whiteSpace=wrap;html=1;" vertex="1" parent="1">
          <mxGeometry x="540" y="120" width="90" height="60" as="geometry" />
        </mxCell>
        <mxCell id="oTK5iQj99HY00BoqEIxF-50" value="&lt;b&gt;DENÚNCIA&lt;/b&gt;" style="ellipse;whiteSpace=wrap;html=1;perimeterSpacing=0;" vertex="1" parent="1">
          <mxGeometry x="680" y="30" width="90" height="60" as="geometry" />
        </mxCell>
        <mxCell id="oTK5iQj99HY00BoqEIxF-51" value="&lt;b style=&quot;border-color: var(--border-color);&quot;&gt;RELATÓRIOS&lt;/b&gt;" style="ellipse;whiteSpace=wrap;html=1;" vertex="1" parent="1">
          <mxGeometry x="680" y="111" width="90" height="59" as="geometry" />
        </mxCell>
        <mxCell id="oTK5iQj99HY00BoqEIxF-52" value="&lt;b style=&quot;border-color: var(--border-color);&quot;&gt;LOGIN&lt;/b&gt;" style="ellipse;whiteSpace=wrap;html=1;" vertex="1" parent="1">
          <mxGeometry x="680" y="220" width="90" height="60" as="geometry" />
        </mxCell>
        <mxCell id="oTK5iQj99HY00BoqEIxF-53" value="" style="endArrow=none;html=1;rounded=0;strokeColor=#736CA8;fontColor=#1A1A1A;strokeWidth=3;exitX=0.5;exitY=1;exitDx=0;exitDy=0;" edge="1" parent="1" source="oTK5iQj99HY00BoqEIxF-49">
          <mxGeometry width="50" height="50" relative="1" as="geometry">
            <mxPoint x="590" y="190" as="sourcePoint" />
            <mxPoint x="680" y="240.5" as="targetPoint" />
            <Array as="points" />
          </mxGeometry>
        </mxCell>
        <mxCell id="oTK5iQj99HY00BoqEIxF-54" value="" style="endArrow=none;html=1;rounded=0;strokeColor=#736CA8;fontColor=#1A1A1A;strokeWidth=3;exitX=0;exitY=0.5;exitDx=0;exitDy=0;" edge="1" parent="1" source="oTK5iQj99HY00BoqEIxF-50">
          <mxGeometry width="50" height="50" relative="1" as="geometry">
            <mxPoint x="650" y="59.5" as="sourcePoint" />
            <mxPoint x="580" y="120" as="targetPoint" />
            <Array as="points" />
          </mxGeometry>
        </mxCell>
        <mxCell id="oTK5iQj99HY00BoqEIxF-55" value="" style="endArrow=none;html=1;rounded=0;strokeColor=#736CA8;fontColor=#1A1A1A;strokeWidth=3;exitX=1;exitY=0.5;exitDx=0;exitDy=0;entryX=0;entryY=0.5;entryDx=0;entryDy=0;" edge="1" parent="1" source="oTK5iQj99HY00BoqEIxF-49" target="oTK5iQj99HY00BoqEIxF-51">
          <mxGeometry width="50" height="50" relative="1" as="geometry">
            <mxPoint x="605" y="200" as="sourcePoint" />
            <mxPoint x="700" y="260.5" as="targetPoint" />
            <Array as="points" />
          </mxGeometry>
        </mxCell>
        <mxCell id="oTK5iQj99HY00BoqEIxF-58" value="&lt;b&gt;MAPA&lt;/b&gt;" style="ellipse;whiteSpace=wrap;html=1;perimeterSpacing=0;" vertex="1" parent="1">
          <mxGeometry x="840" y="30" width="90" height="60" as="geometry" />
        </mxCell>
        <mxCell id="oTK5iQj99HY00BoqEIxF-59" value="" style="endArrow=none;html=1;rounded=0;strokeColor=#736CA8;fontColor=#1A1A1A;strokeWidth=3;exitX=1;exitY=0.5;exitDx=0;exitDy=0;" edge="1" parent="1" target="oTK5iQj99HY00BoqEIxF-58">
          <mxGeometry width="50" height="50" relative="1" as="geometry">
            <mxPoint x="770" y="60" as="sourcePoint" />
            <mxPoint x="820" y="51" as="targetPoint" />
            <Array as="points" />
          </mxGeometry>
        </mxCell>
        <mxCell id="oTK5iQj99HY00BoqEIxF-60" value="" style="endArrow=none;html=1;rounded=0;strokeColor=#736CA8;fontColor=#1A1A1A;strokeWidth=3;" edge="1" parent="1">
          <mxGeometry width="50" height="50" relative="1" as="geometry">
            <mxPoint x="120" y="550" as="sourcePoint" />
            <mxPoint x="320" y="640" as="targetPoint" />
            <Array as="points">
              <mxPoint x="230" y="640" />
            </Array>
          </mxGeometry>
        </mxCell>
        <mxCell id="oTK5iQj99HY00BoqEIxF-61" value="&lt;b style=&quot;font-size: 9px;&quot;&gt;&lt;font style=&quot;font-size: 9px;&quot;&gt;&lt;font color=&quot;#009900&quot;&gt;AREA&lt;br&gt;ADMINISTRATIVA&lt;/font&gt;&lt;br&gt;&lt;/font&gt;&lt;/b&gt;" style="ellipse;whiteSpace=wrap;html=1;" vertex="1" parent="1">
          <mxGeometry x="320" y="610" width="90" height="60" as="geometry" />
        </mxCell>
        <mxCell id="oTK5iQj99HY00BoqEIxF-62" value="&lt;b&gt;LOGIN&amp;nbsp;&amp;nbsp;&lt;br&gt;ADM&lt;br&gt;&lt;/b&gt;" style="ellipse;whiteSpace=wrap;html=1;" vertex="1" parent="1">
          <mxGeometry x="461" y="610" width="90" height="60" as="geometry" />
        </mxCell>
        <mxCell id="oTK5iQj99HY00BoqEIxF-65" value="" style="endArrow=none;html=1;rounded=0;strokeColor=#736CA8;fontColor=#1A1A1A;strokeWidth=3;entryX=0;entryY=0.5;entryDx=0;entryDy=0;" edge="1" parent="1" target="oTK5iQj99HY00BoqEIxF-62">
          <mxGeometry width="50" height="50" relative="1" as="geometry">
            <mxPoint x="410" y="640" as="sourcePoint" />
            <mxPoint x="470" y="680" as="targetPoint" />
            <Array as="points" />
          </mxGeometry>
        </mxCell>
        <mxCell id="oTK5iQj99HY00BoqEIxF-66" value="" style="endArrow=none;html=1;rounded=0;strokeColor=#736CA8;fontColor=#1A1A1A;strokeWidth=3;entryX=0;entryY=0.5;entryDx=0;entryDy=0;" edge="1" parent="1" target="oTK5iQj99HY00BoqEIxF-70">
          <mxGeometry width="50" height="50" relative="1" as="geometry">
            <mxPoint x="551" y="639.5" as="sourcePoint" />
            <mxPoint x="620" y="640" as="targetPoint" />
            <Array as="points" />
          </mxGeometry>
        </mxCell>
        <mxCell id="oTK5iQj99HY00BoqEIxF-67" value="" style="endArrow=none;html=1;rounded=0;strokeColor=#736CA8;fontColor=#1A1A1A;strokeWidth=3;" edge="1" parent="1">
          <mxGeometry width="50" height="50" relative="1" as="geometry">
            <mxPoint x="579" y="640" as="sourcePoint" />
            <mxPoint x="640" y="709" as="targetPoint" />
            <Array as="points">
              <mxPoint x="579" y="709" />
            </Array>
          </mxGeometry>
        </mxCell>
        <mxCell id="oTK5iQj99HY00BoqEIxF-70" value="&lt;b&gt;BUSCA&amp;nbsp;&lt;br&gt;USU&lt;br&gt;&lt;/b&gt;" style="ellipse;whiteSpace=wrap;html=1;" vertex="1" parent="1">
          <mxGeometry x="640" y="610" width="90" height="60" as="geometry" />
        </mxCell>
        <mxCell id="oTK5iQj99HY00BoqEIxF-71" value="" style="endArrow=none;html=1;rounded=0;strokeColor=#736CA8;fontColor=#1A1A1A;strokeWidth=3;" edge="1" parent="1">
          <mxGeometry width="50" height="50" relative="1" as="geometry">
            <mxPoint x="579" y="710" as="sourcePoint" />
            <mxPoint x="640" y="783" as="targetPoint" />
            <Array as="points">
              <mxPoint x="579" y="783" />
            </Array>
          </mxGeometry>
        </mxCell>
        <mxCell id="oTK5iQj99HY00BoqEIxF-73" value="" style="endArrow=none;html=1;rounded=0;strokeColor=#736CA8;fontColor=#1A1A1A;strokeWidth=3;" edge="1" parent="1">
          <mxGeometry width="50" height="50" relative="1" as="geometry">
            <mxPoint x="579" y="782" as="sourcePoint" />
            <mxPoint x="640" y="852" as="targetPoint" />
            <Array as="points">
              <mxPoint x="579" y="852" />
            </Array>
          </mxGeometry>
        </mxCell>
        <mxCell id="oTK5iQj99HY00BoqEIxF-74" value="&lt;b&gt;BUSCA&lt;br&gt;DENÚNCIA&lt;br&gt;&lt;/b&gt;" style="ellipse;whiteSpace=wrap;html=1;" vertex="1" parent="1">
          <mxGeometry x="640" y="680" width="90" height="60" as="geometry" />
        </mxCell>
        <mxCell id="oTK5iQj99HY00BoqEIxF-75" value="&lt;b&gt;RELATÓRIOS&lt;br&gt;ADM&lt;br&gt;&lt;/b&gt;" style="ellipse;whiteSpace=wrap;html=1;" vertex="1" parent="1">
          <mxGeometry x="640" y="750" width="90" height="60" as="geometry" />
        </mxCell>
        <mxCell id="oTK5iQj99HY00BoqEIxF-76" value="&lt;b&gt;SAIR&lt;br&gt;&lt;/b&gt;" style="ellipse;whiteSpace=wrap;html=1;" vertex="1" parent="1">
          <mxGeometry x="640" y="820" width="90" height="60" as="geometry" />
        </mxCell>
      </root>
    </mxGraphModel>
  </diagram>
</mxfile>
